PathFileType	4	(X/Y/Z)	Walk9.trc
DataRate	CameraRate	NumFrames	NumMarkers	Units	OrigDataRate	OrigDataStartFrame	OrigNumFrames
200.000000	200.000000	5	59	mm	200.000000	392	546
Frame#	Times		LBHD		C7		RBack		LPSI		RPSI		RCAR		LElbowM		LTB1		LLFC		T10		LUA1		RElbowM		CLAV		RFA1		LCAR		RUA1		LFA1		RACR1		LACR1		LWRU		RFHD		RTH3		LWRR		RTH2		RTB1		RTB4		RTB3		RToe		RWRU		RMT1		RBHD		LFHD		RTH4		RLFC		RCAL		RWRR		RMT5		RTH1		LTH3		LTH4		RTB2		LTH1		LElbow		RMMAL		LMT1		STRN		RElbow		LTH2		LTB2		RASI		LTB3		RLMAL		LCAL		LToe		LASI		LLMAL		LMT5		LTB4		LMMAL
			X1	Y1	Z1	X2	Y2	Z2	X3	Y3	Z3	X4	Y4	Z4	X5	Y5	Z5	X6	Y6	Z6	X7	Y7	Z7	X8	Y8	Z8	X9	Y9	Z9	X10	Y10	Z10	X11	Y11	Z11	X12	Y12	Z12	X13	Y13	Z13	X14	Y14	Z14	X15	Y15	Z15	X16	Y16	Z16	X17	Y17	Z17	X18	Y18	Z18	X19	Y19	Z19	X20	Y20	Z20	X21	Y21	Z21	X22	Y22	Z22	X23	Y23	Z23	X24	Y24	Z24	X25	Y25	Z25	X26	Y26	Z26	X27	Y27	Z27	X28	Y28	Z28	X29	Y29	Z29	X30	Y30	Z30	X31	Y31	Z31	X32	Y32	Z32	X33	Y33	Z33	X34	Y34	Z34	X35	Y35	Z35	X36	Y36	Z36	X37	Y37	Z37	X38	Y38	Z38	X39	Y39	Z39	X40	Y40	Z40	X41	Y41	Z41	X42	Y42	Z42	X43	Y43	Z43	X44	Y44	Z44	X45	Y45	Z45	X46	Y46	Z46	X47	Y47	Z47	X48	Y48	Z48	X49	Y49	Z49	X50	Y50	Z50	X51	Y51	Z51	X52	Y52	Z52	X53	Y53	Z53	X54	Y54	Z54	X55	Y55	Z55	X56	Y56	Z56	X57	Y57	Z57	X58	Y58	Z58	X59	Y59	Z59

392	1.96	221.38	1495.5	-59.999	201.94	1360.7	11.874	184.68	1259.7	141.74	151.85	902.63	-30.76	155.54	908.36	68.339	397.81	754.74	300.36	220.54	978.89	-200.08	354	343.63	-85.987	371.57	463.25	-160.26	178.49	1093.5	6.6966	280.96	1131.3	-241.62	242.57	964.02	206.35	329.31	1286.3	11.942	309.2	878.31	287.73	389.33	751.75	-318.76	304.57	1147	241.52	287.15	896.83	-295.71	282.61	1302.6	162.49	277.64	1300.8	-155.04	330.74	779.55	-310.22	399.72	1516.6	37.388	325.11	554.39	157.49	391.3	791.22	-269.34	383.81	664.03	146.03	358.66	331.64	50.329	350.93	239.77	51.752	355.36	146.32	46.971	473.38	23.487	25.825	344.17	772.89	275.11	415.47	43.967	25.15	220.46	1502.7	63.263	393.79	1507.2	-39.055	318.28	646.93	181.97	346.44	456.05	137.53	264.94	37.832	79.249	411.73	794.68	250.88	402.03	32.527	83.322	314.94	732.88	207.81	379.47	574.87	-165.59	355.18	665.83	-177.06	337.49	238.86	122.54	324.94	753.99	-191.34	249.06	1015.1	-264.66	317.91	69.792	16.323	195.94	90.499	-59.499	394.77	1183.2	5.1162	293.25	1004.4	279.91	416.7	691.93	-146.22	248.5	307.61	-126.13	381.95	881.7	156.76	228.38	215.31	-54.855	325.8	63.139	95.623	77.135	177.77	-17.194	213.81	47.702	-87.066	345.42	877.97	-158.43	117.29	179.89	-73.56	151.33	97.436	-101.04	283.58	286.03	-67.644	156.13	161.66	-5.7862
393	1.965	226.79	1495.6	-60.192	207.48	1360.9	11.772	190.21	1260	141.76	157.06	902.88	-30.625	160.71	908.8	68.509	406.8	755.91	299.68	224.75	979.23	-199.89	366.04	344.53	-85.483	381.65	464.41	-159.65	183.82	1093.8	6.8661	285.21	1131.5	-241.64	249.55	964.09	206.81	334.79	1286.5	11.786	317.19	878.86	287.8	391.73	751.39	-319.79	310.45	1147.4	241.62	290.47	897	-296.03	288.21	1302.9	162.33	282.95	1300.9	-155.14	333.31	779.44	-310.83	405.09	1516.9	37.191	328	554.47	157.65	394.2	790.79	-270.35	387.56	663.52	145.49	359.49	331.58	50.596	351.35	239.66	51.928	355.58	146.22	46.923	473.43	23.507	25.522	352.84	773.65	274.88	415.49	43.796	24.966	225.86	1502.8	63.072	399.2	1507.5	-39.258	322.29	647.11	182.08	347.74	455.98	137.8	265.01	37.924	79.23	420.07	795.96	250.11	402.04	32.494	83.268	320.01	733.09	207.95	388.14	576.14	-165.19	362.76	666.75	-176.81	338.02	238.72	122.72	331.47	754.53	-191.27	253.04	1015.4	-264.6	317.9	69.804	16.281	214.64	88.863	-59.485	400.19	1183.3	4.8056	300.35	1004.9	280.05	423.92	693.65	-145.85	261.48	306.24	-125.91	387.2	882.04	156.61	243.35	213.44	-54.85	325.93	63.137	95.58	92.585	171.86	-17.691	234.27	46.755	-87.053	350.21	878.06	-158.16	133.11	175.24	-73.873	169.98	94.056	-101.19	296.89	285.4	-67.374	172.15	158.16	-5.8903
394	1.97	232.19	1495.7	-60.409	213.01	1361	11.657	195.75	1260.2	141.76	162.26	903.04	-30.511	165.87	909.19	68.668	415.76	757.03	298.96	229.02	979.51	-199.67	378.04	345.41	-84.918	391.61	465.51	-159.01	189.13	1094	7.0017	289.48	1131.6	-241.67	256.52	964.1	207.25	340.27	1286.5	11.619	325.15	879.37	287.86	394.07	750.97	-320.84	316.31	1147.8	241.71	293.74	897.11	-296.37	293.8	1303.1	162.17	288.27	1300.9	-155.25	335.84	779.29	-311.47	410.44	1517.1	36.972	330.91	554.53	157.82	397.04	790.29	-271.39	391.35	662.97	144.93	360.32	331.52	50.862	351.77	239.56	52.119	355.81	146.13	46.887	473.5	23.527	25.252	361.48	774.4	274.6	415.53	43.633	24.794	231.26	1502.9	62.858	404.59	1507.7	-39.484	326.35	647.26	182.19	349.02	455.91	138.08	265.08	38.025	79.206	428.39	797.2	249.32	402.05	32.456	83.212	325.17	733.24	208.07	396.73	577.34	-164.74	370.28	667.59	-176.54	338.56	238.59	122.91	337.96	754.98	-191.21	256.99	1015.6	-264.54	317.9	69.821	16.247	233.57	87.157	-59.48	405.6	1183.3	4.4935	307.39	1005.2	280.17	431.05	695.28	-145.47	274.56	304.74	-125.73	392.45	882.33	156.47	258.48	211.46	-54.855	326.06	63.135	95.535	108.36	165.7	-18.282	254.99	45.811	-87.016	355.08	878.13	-157.95	149.24	170.37	-74.271	188.96	90.545	-101.36	310.29	284.69	-67.115	188.41	154.49	-6.0599
395	1.975	237.58	1495.6	-60.647	218.53	1361	11.527	201.29	1260.4	141.76	167.45	903.1	-30.417	171.02	909.51	68.816	424.67	758.1	298.2	233.33	979.75	-199.42	390	346.25	-84.297	401.45	466.56	-158.33	194.45	1094.1	7.1044	293.77	1131.6	-241.71	263.48	964.06	207.66	345.75	1286.5	11.439	333.08	879.81	287.88	396.36	750.48	-321.91	322.14	1148.2	241.8	296.97	897.16	-296.71	299.4	1303.3	161.98	293.6	1300.8	-155.36	338.31	779.08	-312.15	415.78	1517.3	36.734	333.83	554.56	158	399.81	789.72	-272.45	395.16	662.36	144.36	361.15	331.47	51.125	352.22	239.48	52.323	356.03	146.04	46.866	473.59	23.547	25.019	370.09	775.12	274.27	415.56	43.478	24.635	236.64	1502.8	62.624	409.97	1507.9	-39.73	330.46	647.36	182.3	350.29	455.82	138.37	265.16	38.135	79.175	436.67	798.4	248.5	402.06	32.414	83.153	330.42	733.34	208.18	405.22	578.47	-164.27	377.73	668.35	-176.25	339.11	238.47	123.11	344.41	755.34	-191.16	260.91	1015.8	-264.47	317.9	69.843	16.22	252.72	85.405	-59.501	411	1183.3	4.1821	314.38	1005.5	280.27	438.1	696.82	-145.08	287.74	303.11	-125.58	397.71	882.56	156.34	273.76	209.38	-54.864	326.2	63.133	95.486	124.47	159.34	-18.956	275.92	44.897	-86.979	360.01	878.16	-157.78	165.65	165.33	-74.749	208.23	86.941	-101.57	323.76	283.9	-66.863	204.92	150.69	-6.2954
396	1.98	242.96	1495.5	-60.905	224.06	1361	11.383	206.84	1260.5	141.74	172.62	903.08	-30.342	176.16	909.76	68.954	433.55	759.13	297.4	237.68	979.92	-199.15	401.91	347.06	-83.627	411.17	467.56	-157.61	199.76	1094.1	7.1755	298.1	1131.6	-241.77	270.42	963.96	208.04	351.23	1286.5	11.246	340.97	880.2	287.87	398.58	749.93	-322.99	327.95	1148.5	241.88	300.15	897.16	-297.07	304.99	1303.3	161.78	298.95	1300.7	-155.48	340.75	778.83	-312.86	421.11	1517.4	36.477	336.75	554.57	158.17	402.52	789.07	-273.52	399	661.71	143.78	361.98	331.43	51.38	352.69	239.42	52.536	356.26	145.95	46.863	473.69	23.566	24.827	378.67	775.8	273.87	415.59	43.331	24.488	242.02	1502.7	62.37	415.35	1508	-39.994	334.59	647.42	182.41	351.57	455.73	138.66	265.23	38.254	79.135	444.92	799.56	247.66	402.07	32.369	83.092	335.73	733.37	208.29	413.62	579.53	-163.76	385.11	669.02	-175.94	339.68	238.36	123.29	350.82	755.62	-191.12	264.81	1015.9	-264.39	317.9	69.87	16.194	272.08	83.631	-59.563	416.41	1183.2	3.873	321.32	1005.7	280.37	445.06	698.27	-144.7	301.03	301.36	-125.46	402.97	882.74	156.23	289.17	207.24	-54.873	326.34	63.128	95.428	140.92	152.81	-19.706	297.04	44.036	-86.963	365.01	878.15	-157.64	182.35	160.16	-75.303	227.79	83.286	-101.82	337.29	283.05	-66.617	221.67	146.77	-6.5963
